<svg aria-hidden="true" style="position: absolute; width: 0; height: 0; overflow: hidden;" version="1.1" xmlns="http://www.w3.org/2000/svg" xmlns:xlink="http://www.w3.org/1999/xlink">
<defs>
<symbol id="icon-sqlite-svgrepo-com" viewBox="0 0 32 32">
<path d="M4.884 2.334c-1.265 0.005-2.289 1.029-2.293 2.294v20.754c0.004 1.264 1.028 2.288 2.293 2.292h11.769c-0.056-0.671-0.088-1.452-0.088-2.241 0-0.401 0.008-0.801 0.025-1.198l-0.002 0.057c-0.008-0.077-0.014-0.176-0.020-0.25q-0.229-1.498-0.591-2.972c-0.119-0.504-0.277-0.944-0.478-1.36l0.017 0.039c-0.080-0.126-0.127-0.279-0.127-0.443 0-0.034 0.002-0.068 0.006-0.101v0.004c0.003-0.173 0.020-0.339 0.049-0.501l-0.003 0.019c0.088-0.523 0.19-0.963 0.314-1.394l-0.022 0.088 0.271-0.035c-0.021-0.044-0.018-0.081-0.039-0.121l-0.051-0.476q0.224-0.751 0.477-1.492l0.25-0.024c-0.010-0.020-0.012-0.047-0.023-0.066l-0.054-0.395c1.006-4.731 3.107-8.864 6.029-12.272l-0.031 0.037c0.082-0.086 0.166-0.16 0.247-0.242zM28.094 1.655c-1.29-1.15-2.849-0.687-4.39 0.68q-0.356 0.319-0.684 0.669c-2.8 3.294-4.843 7.319-5.808 11.747l-0.033 0.18c0.261 0.551 0.494 1.201 0.664 1.876l0.016 0.075q0.115 0.436 0.205 0.878s-0.024-0.089-0.12-0.37l-0.062-0.182q-0.019-0.050-0.041-0.1c-0.172-0.4-0.647-1.243-0.857-1.611-0.179 0.529-0.337 1.022-0.47 1.47 0.413 0.863 0.749 1.867 0.959 2.917l0.014 0.083s-0.031-0.124-0.184-0.552c-0.342-0.739-0.664-1.338-1.015-1.919l0.050 0.089c-0.185 0.464-0.292 1.001-0.292 1.564 0 0.1 0.003 0.199 0.010 0.297l-0.001-0.013c0.219 0.426 0.401 0.921 0.519 1.439l0.008 0.043c0.357 1.375 0.606 3.049 0.606 3.049l0.021 0.28c-0.015 0.342-0.023 0.744-0.023 1.147 0 0.805 0.034 1.602 0.101 2.39l-0.007-0.103c0.058 1.206 0.283 2.339 0.651 3.406l-0.026-0.086 0.194-0.105c-0.346-1.193-0.545-2.564-0.545-3.981 0-0.344 0.012-0.684 0.035-1.022l-0.003 0.046c0.221-3.782 0.964-7.319 2.158-10.641l-0.083 0.264c1.655-4.9 4.359-9.073 7.861-12.417l0.012-0.011c-2.491 2.249-5.863 9.535-6.873 12.232-0.963 2.42-1.798 5.294-2.365 8.263l-0.048 0.305c0.664-1.639 1.914-2.926 3.483-3.622l0.042-0.017s1.321-1.63 2.864-3.956c-1.195 0.25-2.184 0.521-3.15 0.843l0.199-0.057c-0.75 0.314-0.952 0.421-0.952 0.421 1.288-0.791 2.777-1.515 4.337-2.092l0.178-0.058c2.867-4.515 5.991-10.929 2.845-13.736z"></path>
</symbol>
<symbol id="icon-javascript" viewBox="0 0 32 32">
<path d="M0 0h32v32h-32zM29.379 24.368c-0.233-1.46-1.184-2.687-4.004-3.831-0.981-0.46-2.072-0.78-2.396-1.52-0.121-0.44-0.14-0.68-0.061-0.94 0.2-0.861 1.22-1.12 2.020-0.88 0.52 0.16 1 0.56 1.301 1.2 1.379-0.901 1.379-0.901 2.34-1.5-0.36-0.56-0.539-0.801-0.781-1.040-0.84-0.94-1.959-1.42-3.779-1.379l-0.94 0.119c-0.901 0.22-1.76 0.7-2.28 1.34-1.52 1.721-1.081 4.721 0.759 5.961 1.82 1.36 4.481 1.659 4.821 2.94 0.32 1.56-1.16 2.060-2.621 1.88-1.081-0.24-1.68-0.781-2.34-1.781l-2.44 1.401c0.28 0.64 0.6 0.919 1.080 1.479 2.32 2.341 8.12 2.221 9.161-1.339 0.039-0.12 0.32-0.94 0.099-2.2zM17.401 14.708h-2.997c0 2.584-0.012 5.152-0.012 7.74 0 1.643 0.084 3.151-0.184 3.615-0.44 0.919-1.573 0.801-2.088 0.64-0.528-0.261-0.796-0.621-1.107-1.14-0.084-0.14-0.147-0.261-0.169-0.261l-2.433 1.5c0.407 0.84 1 1.563 1.765 2.023 1.14 0.68 2.672 0.9 4.276 0.54 1.044-0.301 1.944-0.921 2.415-1.881 0.68-1.24 0.536-2.76 0.529-4.461 0.016-2.739 0-5.479 0-8.239z"></path>
</symbol>
<symbol id="icon-typescript" viewBox="0 0 32 32">
<path d="M0 16v16h32v-32h-32zM25.788 14.725c0.813 0.203 1.432 0.564 2.001 1.153 0.295 0.315 0.732 0.888 0.767 1.027 0.011 0.040-1.381 0.973-2.224 1.497-0.031 0.020-0.153-0.112-0.289-0.315-0.413-0.6-0.844-0.859-1.504-0.904-0.971-0.067-1.595 0.441-1.589 1.289-0.001 0.015-0.001 0.032-0.001 0.050 0 0.201 0.051 0.391 0.14 0.557l-0.003-0.006c0.213 0.441 0.611 0.707 1.853 1.244 2.292 0.987 3.272 1.636 3.881 2.56 0.68 1.031 0.833 2.677 0.371 3.901-0.507 1.331-1.767 2.235-3.54 2.533-0.548 0.097-1.848 0.083-2.437-0.024-1.285-0.229-2.504-0.864-3.256-1.697-0.295-0.324-0.869-1.173-0.833-1.233 0.015-0.021 0.147-0.103 0.293-0.188 0.144-0.081 0.681-0.392 1.189-0.687l0.92-0.533 0.193 0.285c0.269 0.411 0.857 0.975 1.213 1.163 1.021 0.539 2.423 0.463 3.113-0.157 0.257-0.217 0.419-0.54 0.419-0.9 0-0.021-0.001-0.042-0.002-0.062l0 0.003c0-0.371-0.047-0.533-0.24-0.813-0.248-0.355-0.756-0.653-2.199-1.28-1.651-0.711-2.361-1.152-3.012-1.853-0.392-0.445-0.694-0.981-0.871-1.57l-0.008-0.030c-0.121-0.452-0.152-1.585-0.056-2.041 0.34-1.596 1.544-2.707 3.281-3.037 0.564-0.107 1.875-0.067 2.428 0.071zM18.276 16.061l0.011 1.311h-4.167v11.835h-2.947v-11.835h-4.163v-1.285c0-0.712 0.015-1.307 0.035-1.32 0.016-0.021 2.551-0.032 5.623-0.027l5.593 0.016z"></path>
</symbol>
<symbol id="icon-sass" viewBox="0 0 32 32">
<path d="M16 0c8.836 0 16 7.164 16 16s-7.164 16-16 16-16-7.164-16-16 7.164-16 16-16zM12.82 21.331c0.233 0.86 0.208 1.664-0.032 2.389l-0.087 0.24c-0.032 0.081-0.069 0.16-0.104 0.235-0.187 0.387-0.435 0.747-0.74 1.080-0.931 1.012-2.229 1.396-2.787 1.073-0.6-0.349-0.301-1.78 0.779-2.92 1.161-1.224 2.827-2.012 2.827-2.012v-0.004zM26.035 6.849c-0.723-2.844-5.436-3.779-9.896-2.193-2.652 0.943-5.525 2.424-7.591 4.356-2.457 2.295-2.848 4.295-2.687 5.131 0.569 2.948 4.609 4.876 6.271 6.307v0.008c-0.489 0.24-4.075 2.039-4.915 3.9-0.9 1.96 0.14 3.361 0.82 3.54 2.1 0.581 4.26-0.48 5.42-2.199 1.12-1.681 1.021-3.841 0.539-4.901 0.661-0.18 1.44-0.26 2.44-0.139 2.801 0.32 3.361 2.080 3.24 2.8-0.12 0.719-0.697 1.139-0.899 1.259-0.2 0.121-0.26 0.16-0.241 0.241 0.020 0.12 0.121 0.12 0.28 0.1 0.22-0.040 1.461-0.6 1.521-1.961 0.060-1.72-1.581-3.639-4.5-3.6-1.2 0.021-1.961 0.121-2.5 0.341-0.040-0.060-0.081-0.1-0.14-0.14-1.8-1.94-5.14-3.3-5-5.88 0.040-0.94 0.38-3.419 6.4-6.419 4.94-2.461 8.881-1.78 9.561-0.28 0.977 2.139-2.101 6.12-7.241 6.699-1.96 0.22-2.98-0.539-3.241-0.82-0.279-0.3-0.319-0.32-0.419-0.259-0.16 0.080-0.060 0.34 0 0.5 0.16 0.4 0.78 1.1 1.861 1.46 0.939 0.3 3.24 0.479 6-0.6 3.099-1.199 5.519-4.54 4.819-7.34z"></path>
</symbol>
<symbol id="icon-wolfram" viewBox="0 0 32 32">
<path d="M26.807 16.001l4.409-4.944-6.472-1.412 0.66-6.592-6.067 2.661-3.337-5.715-3.34 5.716-6.064-2.661 0.659 6.592-6.472 1.405 4.407 4.943-4.407 4.951 6.472 1.404-0.667 6.593 6.071-2.659 3.341 5.716 3.339-5.716 6.067 2.659-0.66-6.584 6.472-1.413zM28.947 19.724l-3.815-1.309-2.532-3.295 3.368 1.256zM29.559 11.596l-3.469 3.891-4.088-1.521 2.459-3.483zM23.841 9.831l-2.044 2.905 0.117-4.216 2.384-3.22zM19.436 6.632l4.121-1.805-2.357 3.171-3.924 1.399zM21.019 8.995l-0.128 4.869-4.455 1.493v-4.732zM16 1.744l2.625 4.495-2.625 3.36-2.628-3.361zM12.564 6.632l2.159 2.763-3.931-1.397-2.349-3.171zM15.557 10.625v4.732l-4.447-1.493-0.136-4.869zM10.085 8.52l0.115 4.216-2.043-2.905-0.455-4.529zM2.44 11.589l5.099-1.107 2.452 3.483-4.087 1.515zM6.032 16.369l3.368-1.249-2.533 3.295-3.815 1.303zM3.241 20.581l3.905-1.333 4.060 1.195-3.496 1.116zM7.615 27.531l0.523-5.195 4.148-1.309 0.109 4.413zM12.536 19.92l-4.664-1.373 2.968-3.856 4.447 1.501zM15.557 29.508l-2.281-3.912-0.088-3.695 2.369 3.463zM13.251 20.441l2.749-3.732 2.751 3.732-2.751 4.007zM18.723 25.596l-2.287 3.912v-4.143l2.376-3.463zM16.704 16.193l4.455-1.501 2.961 3.856-4.665 1.373zM19.604 25.44l0.103-4.413 4.155 1.309 0.515 5.201zM24.289 21.557l-3.5-1.116 4.065-1.195 3.904 1.337z"></path>
</symbol>
<symbol id="icon-python" viewBox="0 0 32 32">
<path d="M19.080 0.24l1.2 0.267 0.973 0.347 0.787 0.4 0.6 0.427 0.453 0.453 0.333 0.453 0.213 0.44 0.133 0.4 0.053 0.347 0.027 0.267-0.013 0.173v7.12l-0.067 0.84-0.173 0.733-0.28 0.613-0.347 0.507-0.4 0.413-0.44 0.333-0.467 0.253-0.467 0.187-0.44 0.133-0.4 0.093-0.347 0.053-0.28 0.027h-7.96l-0.92 0.067-0.787 0.187-0.667 0.293-0.547 0.36-0.44 0.427-0.36 0.467-0.267 0.48-0.2 0.493-0.133 0.467-0.093 0.427-0.053 0.36-0.027 0.28v4.080h-2.973l-0.28-0.040-0.373-0.093-0.427-0.16-0.467-0.24-0.48-0.347-0.48-0.48-0.467-0.613-0.427-0.787-0.373-0.973-0.28-1.173-0.187-1.4-0.067-1.64 0.080-1.627 0.213-1.387 0.32-1.16 0.427-0.947 0.48-0.76 0.533-0.587 0.56-0.44 0.56-0.32 0.533-0.213 0.48-0.133 0.427-0.067 0.32-0.013h0.213l0.080 0.013h10.88v-1.107h-7.787l-0.013-3.667-0.027-0.493 0.067-0.453 0.147-0.413 0.227-0.373 0.333-0.347 0.413-0.307 0.507-0.267 0.587-0.24 0.68-0.2 0.773-0.16 0.853-0.133 0.947-0.080 1.027-0.053 1.12-0.027 1.693 0.067zM10.68 2.88l-0.307 0.44-0.107 0.547 0.107 0.547 0.307 0.453 0.44 0.293 0.547 0.12 0.547-0.12 0.44-0.293 0.307-0.453 0.107-0.547-0.107-0.547-0.307-0.44-0.44-0.293-0.547-0.12-0.547 0.12zM28.133 8.147l0.373 0.080 0.427 0.16 0.467 0.24 0.48 0.36 0.48 0.467 0.467 0.627 0.427 0.787 0.373 0.973 0.28 1.173 0.187 1.387 0.067 1.64-0.080 1.64-0.213 1.387-0.32 1.147-0.427 0.947-0.48 0.76-0.533 0.6-0.56 0.44-0.56 0.32-0.533 0.213-0.48 0.12-0.427 0.067-0.32 0.027-0.213-0.013h-10.96v1.093h7.787l0.013 3.68 0.027 0.48-0.067 0.453-0.147 0.413-0.227 0.387-0.333 0.333-0.413 0.32-0.507 0.267-0.587 0.227-0.68 0.2-0.773 0.173-0.853 0.12-0.947 0.093-1.027 0.053-1.12 0.013-1.693-0.053-1.427-0.187-1.2-0.267-0.973-0.333-0.787-0.4-0.6-0.44-0.453-0.453-0.333-0.453-0.213-0.44-0.133-0.4-0.053-0.333-0.027-0.267 0.013-0.173v-7.12l0.067-0.853 0.173-0.72 0.28-0.613 0.347-0.507 0.4-0.427 0.44-0.32 0.467-0.267 0.467-0.187 0.44-0.133 0.4-0.080 0.347-0.053 0.28-0.027 0.173-0.013h7.787l0.92-0.067 0.787-0.187 0.667-0.28 0.547-0.373 0.44-0.427 0.36-0.467 0.267-0.48 0.2-0.48 0.133-0.467 0.093-0.427 0.053-0.373 0.027-0.28v-4.080h2.787l0.187 0.013zM19.507 27.147l-0.307 0.44-0.107 0.547 0.107 0.547 0.307 0.44 0.44 0.307 0.547 0.107 0.547-0.107 0.44-0.307 0.307-0.44 0.107-0.547-0.107-0.547-0.307-0.44-0.44-0.307-0.547-0.107-0.547 0.107z"></path>
</symbol>
<symbol id="icon-flask" viewBox="0 0 32 32">
<path d="M9.563 27.54c-1.219-0.96-2.52-1.88-3.408-3.173-1.869-2.283-3.309-4.925-4.293-7.703-0.595-1.807-0.8-3.744-1.565-5.48-0.803-1.259 0.137-2.637 1.517-3.039 0.613-0.117 1.696-0.697 0.391-0.283-1.171 0.859-1.284-0.78-0.084-0.883 0.82-0.109 1.12-0.78 0.84-1.383-0.879-0.573 2.133-1.204 0.617-2.059-1.576-1.704 2.209-2.032 1.276-0.099-0.223 1.487 2.645-0.272 1.98 1.444 0.676 0.825 2.533 0.188 2.487 1.345 0.987 0.067 1.324 0.896 2.249 0.96 0.96 0.433 2.697 0.773 3.023 1.855-0.951 0.753-3.153-1.555-3.259 0.529 0.287 3.080 0.213 6.252 1.34 9.184 0.533 1.776 1.825 3.173 2.992 4.557 1.116 1.355 2.628 2.307 4.169 3.111 1.352 0.637 2.809 1.060 4.284 1.325 0.597-0.457 1.653-2.156 2.584-1.44 0.044 0.805-1.851 1.684-0.089 1.595 1.035-0.312 1.752 0.8 2.604-0.203 0.784 0.929 3.261-0.595 2.703 1.307-0.755 0.485-1.856 0.192-2.612 0.861-1.247-0.623-2.24 0.557-3.62 0.408-1.533 0.275-3.092 0.387-4.645 0.388-2.549-0.201-5.153-0.287-7.579-1.173-1.367-0.397-2.699-1.176-3.901-1.953zM11.716 28.473c1.333 0.576 2.639 1.184 4.1 1.368 2.32 0.321 4.716 0.819 7.044 0.365-1.053-0.476-2.144 0.187-3.193-0.34-1.259 0.271-2.609-0.069-3.889-0.236-1.456-0.648-3.027-1.093-4.389-1.936-1.703-0.621 0.88 0.797 1.341 0.913 1.064 0.604-1.171-0.311-1.487-0.561-0.891-0.5-1.005-0.396-0.088 0.112 0.185 0.108 0.368 0.221 0.561 0.315zM9.177 26.679c1.293 0.479-0.005-0.909-0.599-0.829-0.263-0.455-1.003-0.743-0.48-0.987-0.94 0.325-0.984-1.24-1.427-1.017-0.993-0.313-0.387-1.425-1.569-2.107-0.108-0.72-1.176-1.344-1.517-2.429-0.151-0.555-1.207-2.151-0.557-0.667 0.552 1.429 1.524 2.653 2.333 3.876 0.627 1.164 1.369 2.381 2.513 3.107 0.387 0.371 0.757 0.937 1.303 1.053zM5.453 22.589c0.044-0.195 0.236 0.423 0 0zM10.725 27.252c0.287-0.128-0.412-0.16 0 0zM11.427 27.508c-0.072-0.353-0.32 0.197 0 0zM12.307 27.875c0.417-0.399-0.645-0.251 0 0zM13.811 28.715c0.255-0.376-0.813-0.143 0 0zM10.92 26.697c0.649-0.42-0.84-0.005 0 0zM11.579 27.025c-0.019-0.221-0.235 0.1 0 0zM14.872 29.081c0.531 0.333 3.093 0.733 1.488 0.137-0.268 0.056-2.975-0.765-1.488-0.137zM9.644 25.009c-0.052-0.223-0.821-0.247 0 0zM11.177 25.903c0.4-0.279-0.828-0.213 0 0zM12.467 26.693c0.573-0.216-0.929-0.217 0 0zM9.020 24.329c0.621 0.477 2.507 0.061 0.952-0.284-0.707-0.377-2.303-0.635-1.216 0.227zM13.34 26.967c0.259-0.44-1.085-0.252 0 0zM12.028 25.923c1.52 0.431-1.277-0.96-0.375-0.157l0.2 0.091zM14.66 27.444c1.439 0.013-1.3-0.197 0 0zM8.467 23.497c-0.056-0.268-0.355 0.023 0 0zM17.093 28.809c0.039-0.484-0.469 0.36 0 0zM10.921 25.001c-0.087-0.255-0.449-0.011 0 0zM8.603 23.329c0.827-0.049-1.131-0.364 0 0zM5.856 21.553c-0.103-0.396-0.899-0.712 0 0zM13.067 26.133c-0.152-0.173-0.072 0.037 0 0zM17.555 28.887c-0.013-0.263-0.244 0.1 0 0zM12.669 25.723c0.080-0.34-0.705-0.103 0 0zM9.327 23.6c0.613-0.065-0.985-0.415 0 0zM14.983 27.116c0.957-0.38-0.933-0.187 0 0zM12.040 25.12c1.104 0.141-1.313-0.751-0.241-0.080zM15.876 27.477c1.031-0.616 0.691 1.443 1.748 0.173 1.043-0.76-0.9 0.943 0.385 0.137 0.929-0.623 2.303 0.293 3.169 0.593 0.624-0.031 1.231 0.54 1.871 0.193 1.231-0.333-2.408-0.493-1.453-1.080-1.127 0.327-1.96-0.392-2.513-1.113-1.264-0.292-2.725-0.937-3.356-2.056-0.256-0.42 0.372 0.059-0.221-0.627-0.761-0.677-1.141-1.447-1.653-2.269-0.609-0.325-0.68-1.284-0.743-0.032 0.005-0.791-0.737-1.323-0.919-1.101-0.003-0.761 0.795-0.38 0.236-0.943-0.12-0.789-0.516-1.612-0.635-2.503-0.184-0.429-0.027-1.348-0.631-0.376-0.22 1.027-0.073-1.263 0.269-0.507 0.449-0.772-0.16-0.68-0.187-0.573 0.293-0.651 0.187-1.573-0.076-1.221 0.156-0.689 0.247-2.536-0.233-2.208 0.291-0.72 0.552-3.297-0.712-2.315-0.512 0.007-1.397 0.187-1.817 0.395 1.315 0.724-0.132 0.261-0.667 0.147-0.069 0.669-0.6 0.38-1.261 0.387 1.057 0.131-0.515 1.080-1.121 0.712-0.787 0.376 0.68 1.316 0.016 1.607 0.081 0.437-1.207-0.159-1.107 0.853-0.764-0.321-0.104 1.2 0.279 0.685 1.3 0.352 0.915 1.155 0.948 1.916-0.212 0.444-1.047-1.044-0.187-0.975-0.677-1.103-0.749-0.399-1.313 0.113-0.132 0.037 1.439 0.729 0.453 1.071 0.867 0.133 0.891 0.893 1.067 1.373 0.521 0.543 0.415-0.6 1.039 0.053-0.395-0.581-2.089-1.637-0.725-1.299-0.007-0.585-0.247-1.057 0.172-1.045 0.413-0.749-0.433 1.849 0.5 0.896 0.257-0.113 0.321-0.751 0.787 0.060 0.673 0.664 0.243 1.144-0.708 0.537 0.169 0.577 1.272 0.783 1.065 1.687 0.22 0.793 0.527 0.501 0.795 0.456 0.211 0.771 0.329 0.204 0.34-0.164 0.961 0.207 0.736 0.775 1.037 1.173 0.663 0.299-0.949-2.029 0.189-0.701 1.197 1.081 0.449 1.533-0.627 1.36 0.68-0.055 0.9 0.92 1.751 0.885 0.776 0.369 1.301 1.787-0.036 1.196-0.464-0.417-2.105-0.933-0.764-0.139 1.239 0.573 2.221 0.917 3.416 1.636 0.853 0.611 1.224 1.309 1.547 1.448-0.717 0.343-2.164-0.275-1.089-0.464-0.671-0.121-1.424-0.46-0.783 0.373 0.547 0.457 1.933 0.408 2.183 0.46-0.212 0.464-0.573 0.501 0.008 0.537-0.648 0.347 0.208 0.4 0.268 0.596zM14.551 23.733c-0.395-0.413-0.497-1.187-0.071-0.513 0.219 0.088 0.7 1.263 0.071 0.513zM18.868 26.476c0.247-0.015 0.008 0.187 0 0zM13.927 22.721c-0.015-0.624 0.143 0.481 0 0zM13.497 22.144c-0.496-0.959 0.627 0.272 0 0zM8.297 18.555c0.291-0.079 0.143 0.499 0 0zM12.436 20.797c0.179-0.672 0.211 0.565 0 0zM9.512 18.764c-0.207-0.371 0.431 0.348 0 0zM12.021 19.569c-0.469-1.053 0.333-0.576 0.104 0.173zM7.693 16.683c-0.211-0.347-0.557-1.36-0.445-1.669 0.101 0.504 1.072 2.169 0.476 0.691-0.659-1.24 0.787 0.403 0.936 0.712 0.068 0.307-0.407-0.084-0.085 0.637-0.587-0.823-0.347 0.453-0.881-0.371zM6.356 15.761c0.055-0.804 0.307 0.551 0 0zM6.957 15.968c0.287-0.607 0.487 0.845 0 0zM5.511 14.848c-0.499-0.493-0.859-0.951 0.023-0.307 0.34 0.013-0.755-1.037 0.081-0.333 0.88 0.16 0.435 1.443-0.104 0.64zM6.271 14.828c0.289-0.287 0.153 0.283 0 0zM6.737 14.979c-0.437-0.823 0.533 0.344 0 0zM5.808 14.089c-1.448-1.288 1.82 0.675 0.236 0.24zM9.956 16.5c-0.627-0.376-0.165-2.645 0.048-1.093 0.609-0.197-0.033 0.801 0.42 0.792-0.071 0.631-0.275 0.857-0.468 0.301zM11.489 17.407c0.063-0.684 0.131 0.467 0 0zM11.223 17.143c0.071-0.292 0.008 0.344 0 0zM6.093 13.667c-0.929-1.284 2.703 1.297 0.596 0.325-0.22-0.057-0.485-0.079-0.596-0.325zM9.048 15.233c-0.088-1.080 0.196 0.179 0 0zM11.291 16.672c0.173-0.616 0.013 0.407 0 0zM6.235 13.176c0.553-0.117 2.291 0.972 0.695 0.312-0.177-0.197-0.556-0.107-0.695-0.312zM10.981 15.543c0.059-1.105 0.331-0.66 0.003 0.157zM6.647 12.792c0.225-0.331-0.599-1.493 0.119-0.417 0.309 0.247 0.896 0.413 0.377 0.516 0.815 0.719-0.199 0.195-0.496-0.099zM10.747 15.197c0.156-1.259 0.137 0.737 0 0zM6.176 11.629c0.172-0.073 0.091 0.229 0 0zM7.245 12.267c0.275-0.579 0.507 0.644 0 0zM10.263 13.945c-0.003-0.223 0.057 0.323 0 0zM10.088 13.559c-0.419-1.035 0.389 0.547 0 0zM9.831 12.88c-0.071-0.427 0.24 0.537 0 0zM10.249 12.2c-0.288-0.507 0.363-2.232 0.435-1.161-0.303 0.833-0.087 1.3 0.124 0.181 0.391-0.88-0.084 1.737-0.559 0.98zM10.679 9.635c0.125-0.153 0.028 0.185 0 0zM9.961 23.785c-0.171-0.148 0.021 0.095 0 0zM11.441 24.533c0.821 0.212 0.817-0.128 0.073-0.228-0.4-0.373-1.661-0.767-0.532-0.047 0.075 0.189 0.312 0.185 0.459 0.275zM8.519 22.593c0.453 0.337 1.707 0.959 0.645 0.128 0.359-0.416-0.685-0.637-0.339-0.915-0.88-0.539-0.693-0.491-0.077-0.475-1.059-0.472 0.152-0.437 0.095-0.68-0.408-0.080-2.027-0.719-1.073 0.053-0.968-0.493-0.231 0.184-0.523 0.112-0.991-0.269 0.88 0.753-0.157 0.5 0.567 0.449 1.528 1.152 0.24 0.476-0.171 0.244 0.921 0.613 1.189 0.8zM10.065 23.483c1.881 0.605-0.921-0.741 0 0zM17.985 28.28c0.027-0.373-0.256 0.32 0 0zM18.801 28.623c0.433-0.42 0.017 0.671 0.719-0.103 0.008-0.553-0.021-0.88-0.807-0.208-0.216 0.12-0.312 0.631 0.088 0.311zM5.877 20.507c-0.133-0.524-0.933-0.52 0 0zM6.747 21.077c-0.323-0.536-1.152-0.485 0 0zM11.693 24.060c0.483 0.428 2.217 0.315 0.587 0.053-0.243-0.359-1.535-0.272-0.587-0.053zM18.491 28.259c0.744-0.624-0.72 0.277 0 0zM20.037 29.32c0.004-0.2-0.32 0.088 0 0zM20.039 29.040c0.823-0.872-0.797 0.052 0 0zM3.74 18.717c-0.701-1-0.436-1.451-1.113-2.267-0.128-0.627-1.16-2.044-0.533-0.541 0.573 0.879 0.744 2.239 1.647 2.808zM19.78 28.763c1.515-0.979-0.62-0.427 0 0zM20.936 29.216c0.76-0.651-0.48-0.136 0 0zM5.62 19.4c0.217-0.323-0.56-0.041 0 0zM20.695 28.905c0.735-0.473-0.168-0.4-0.133 0.043zM10.733 22.627c-0.027-0.32-0.388 0.027 0 0zM11.348 22.981c-0.195-0.396-0.3 0.063 0 0zM21.873 29.227c0.94-0.68-0.571-0.131-0.197 0.128zM21.513 29.053c0.765-0.643-0.809 0.284 0 0zM23.353 30.277c0.515-0.344-0.625-0.111 0 0zM6.092 19.168c0.689 0.155 2.755 1.699 1.536 0.107-0.624-0.184-0.249-1.711-0.887-1.44 0.427 0.713 0.352 1.017-0.545 0.568-1.128-0.551-0.633 0.272-0.413 0.499-0.3 0.069 0.397 0.261 0.309 0.267zM2.951 16.688c0.123-0.511-1.137-2.809-0.595-1.152 0.195 0.347 0.175 1.005 0.595 1.152zM8.716 20.243c-0.355-0.297-0.017-0.043 0 0zM9.591 20.445c0-0.54-0.967-0.219 0 0zM17.167 25.223c-0.144-0.371-0.571-0.008 0 0zM17.531 25.488c-0.053-0.207-0.209 0.040 0 0zM20.535 27.38c0.288-0.213-0.36-0.027 0 0zM4.52 17.088c0.827-0.32-0.885-0.228 0 0zM16.5 24.636c-0.009-0.535-0.527 0.133 0 0zM4.193 16.328c0.531-0.18-0.491-0.119 0 0zM5.733 17.075c-0.009-0.177-0.163 0.067 0 0zM24.52 28.595c0.684-0.139 2.239 0.347 2.489-0.181-0.828-0.020-2.867-0.584-2.963 0.135l0.181 0.029zM6.224 17.197c0.012-0.543-0.423-0.020 0 0zM2.173 14.387c-0.184-1.033-0.7-0.157 0 0zM3.139 14.629c0.012-0.332-0.884-0.299 0 0zM3.691 14.9c-0.16-0.129-0.125 0.163 0 0zM7.164 17.127c0.163-0.149-0.387-0.111 0 0zM3.324 14.289c-0.093-0.78-1.12-0.117 0 0zM1.343 13.004c-0.027-0.36-0.192 0.136 0 0zM1.637 12.781c-0.048-0.427-0.253 0.053 0 0zM3.264 13.753c0.689-0.271-1.253-0.56-0.14-0.052zM25.043 27.205c0.44-0.404-0.56-0.125 0 0zM27.675 28.569c0.176-0.523-0.445 0.068 0 0zM3.431 12.901c0.073-0.505-0.545 0.1 0 0zM1.116 11.351c-0.124-0.713-0.107-1.965 1.083-1.541-1.588 0.315 1.099 1.973 0.76 0.664 0.667 0.032 1.307-0.395 0.955 0.253 1.316-0.145 2.228-1.285 3.499-1.127 0.989-0.131 2.072-0.229 3.139-0.628 0.877-0.064 1.721-1.008 1.24-1.567-1.195-0.101-2.447 0.048-3.769 0.311-1.464 0.304-2.795 0.883-4.273 1.132-1.44 0.193 0.289 0.533-0.123 0.608-0.752 0.261 0.896 0.437-0.097 0.712-0.613-0.117-1.253-0.328-0.991-0.973-1.38 0.177-2.593 0.751-1.503 2.155zM4.441 9.657c0.324-1.192 1.733 0.98 0.531 0.157-0.144-0.107-0.38-0.195-0.531-0.157zM4.504 9.079c0.467-0.347 0.248 0.195 0 0zM5.097 9.089c0.043-0.548 1.357 0.291 0.217 0.197zM5.908 8.763c0.296-0.347 0.085 0.308 0 0zM6.116 8.624c0.493-0.592 2.793-0.377 1.109-0.057-0.451-0.34-0.797 0.2-1.109 0.057zM9.117 8.161c-0.075-1.619 1.491 0.576 0 0zM9.969 8.156c0.311-0.816 1.208-0.327 0.144-0.164 0.023 0.087-0.032 0.421-0.144 0.164zM3.096 12.483c0.929-0.569-0.988-0.493 0 0zM3.783 12.675c0.327-0.347-0.708-0.141 0 0zM1.756 11.235c0.532-0.407-0.628-0.155 0 0zM29.227 28.421c0.016-0.473-0.405 0.213 0 0zM26.436 26.516c0.080-0.545-0.36 0.048 0 0zM29.996 28.605c0.743 0 2.251-0.231 0.633-0.231-0.253 0.040-1.479 0.032-0.633 0.231zM4.387 12.339c0.601-0.040 0.941-0.663-0.116-0.627-1.64-0.169 1.445 0.56-0.211 0.352-0.223 0.147 0.315 0.316 0.327 0.275zM4.917 12.608c-0.064-0.387-0.187 0.205 0 0zM5.544 10.932c0.263-0.324-0.36-0.087 0 0zM3.544 7.588c1.075-0.365 2.543-0.775 3.049 0.18-0.516-0.621-0.208-1.232 0.28-0.324 0.688 0.919 1.033-0.417 0.584-0.727 0.511 0.635 1.092 0.935 0.343 0.040 0.813-0.979-1.631 0.129-2.187 0.117-0.267 0.12-2.761 0.636-2.069 0.713zM4.173 6.384c0.613-0.463 2.117 0.275 1.152-0.46-0.093-0.083-2.115 0.557-1.152 0.46zM6.405 6.476c0.717 0.017-0.308-0.963 0.545-0.519-0.14-0.459-0.995-0.544-1.412-0.727-0.236 0.419 0.48 1.251 0.867 1.245zM4.565 4.449c0.248-0.336-0.435 0.171 0 0zM5.477 4.668c1.155-0.153-0.293-0.497-0.232-0.013zM3.775 3.335c-0.813-1.061 1.528 0.179 0.703-0.933-0.696-0.553-1.364 0.624-0.703 0.933zM14.208 8.955c0.373-0.661-1.54-0.891-0.251-0.233 0.119 0.040 0.092 0.28 0.251 0.233z"></path>
</symbol>
<symbol id="icon-mongodb" viewBox="0 0 32 32">
<path d="M22.907 12.691c-1.684-7.413-5.656-9.849-6.083-10.781-0.469-0.657-0.977-1.909-0.977-1.909-0.003 0.025-0.005 0.041-0.007 0.065v0.017h-0.001c-0.003 0.020-0.004 0.033-0.005 0.052v0.020h-0.003c0 0.013-0.003 0.024-0.003 0.035v0.035h-0.004c-0.001 0.011-0.001 0.024-0.004 0.033v0.028h-0.003c0 0.009 0 0.020-0.003 0.028v0.027h-0.003c0 0.013-0.001 0.029-0.003 0.043v0.003c-0.004 0.023-0.008 0.045-0.012 0.067v0.011h-0.003c-0.001 0.005-0.004 0.011-0.004 0.016v0.023h-0.004v0.029h-0.007v0.024h-0.007v0.028h-0.005v0.025h-0.005v0.023h-0.008v0.019h-0.005v0.024h-0.005v0.019h-0.007v0.017h-0.004v0.020h-0.005c-0.001 0.001-0.001 0.004-0.001 0.005v0.013h-0.004c-0.001 0.003-0.001 0.005-0.001 0.008v0.008h-0.003c-0.001 0.004-0.003 0.011-0.003 0.013-0.004 0.009-0.009 0.019-0.013 0.028v0.003c-0.003 0.003-0.005 0.007-0.007 0.009v0.011h-0.005v0.011h-0.007v0.011h-0.004v0.013h-0.008v0.019h-0.005v0.005h-0.005v0.011h-0.005v0.015h-0.005v0.011h-0.008v0.015h-0.005v0.011h-0.007v0.011h-0.004v0.013h-0.007v0.011h-0.005v0.008h-0.005v0.011h-0.008v0.012h-0.005v0.008h-0.007v0.011h-0.005v0.015h-0.007v0.005h-0.004v0.011h-0.008v0.005h-0.005v0.013h-0.005v0.005h-0.005v0.011h-0.007v0.008h-0.004l-0.003 0.005v0.005h-0.003c-0.001 0.003-0.003 0.003-0.003 0.005v0.001h-0.001c-0.001 0.004-0.003 0.007-0.005 0.009v0.004h-0.001c-0.007 0.008-0.011 0.016-0.016 0.024v0.001c-0.003 0.003-0.009 0.008-0.012 0.013v0.003h-0.001c-0.001 0.001-0.004 0.003-0.004 0.004v0.004h-0.003l-0.004 0.004v0.001h-0.001c0 0.001-0.003 0.003-0.004 0.005v0.005h-0.004l-0.003 0.003v0.003h-0.003c0 0.003-0.003 0.003-0.003 0.004v0.004h-0.005c0 0.001-0.001 0.003-0.003 0.004v0.008h-0.004v0.005h-0.005v0.008h-0.005v0.011h-0.007v-0.011h-0.007v0.005h-0.005v0.008h-0.007v0.011h-0.007v0.005h-0.005v0.008h-0.005v0.005h-0.005v0.011h-0.008v0.005h-0.005v0.008h-0.007v0.005h-0.005v0.007h-0.007v0.013h-0.003v0.005h-0.008v0.007h-0.005v0.003h-0.005v0.005h-0.007v0.013h-0.005v0.005h-0.007v0.005h-0.005v0.008h-0.007v0.005h-0.007v0.005h-0.005v0.005h-0.005v0.013h-0.005v0.007h-0.008v0.005h-0.005v0.005h-0.007v0.008h-0.005v0.005h-0.007v0.009h-0.005v0.005h-0.008v0.008h-0.003v0.005h-0.005v0.005h-0.007v0.005h-0.005v0.008h-0.007v0.005h-0.004c-0.001 0.001-0.001 0.003-0.001 0.003v0.003h-0.003l-0.005 0.005c0 0-0.003 0.003-0.005 0.004v0.008h-0.005v0.007h-0.005v0.005h-0.005v0.005h-0.004l-0.004 0.004v0.004h-0.003l-0.003 0.003v0.004h-0.003c-0.007 0.008-0.009 0.013-0.019 0.021-0.003 0.003-0.011 0.009-0.016 0.013-0.016 0.011-0.036 0.028-0.052 0.043-0.011 0.007-0.021 0.016-0.029 0.023v0.001h-0.001c-0.021 0.017-0.041 0.033-0.065 0.052v0.001c-0.032 0.027-0.063 0.052-0.099 0.083v-0.001h-0.003c-0.076 0.063-0.156 0.133-0.248 0.212v0.001h-0.001c-0.225 0.197-0.493 0.451-0.793 0.757l-0.025 0.025c-1.813 1.876-4.671 5.785-4.972 12.103-0.027 0.523-0.021 1.031 0.008 1.525v0.012c0.145 2.489 0.927 4.615 1.904 6.341v0.001c0.389 0.688 0.809 1.313 1.235 1.873v0.001c1.469 1.94 2.969 3.089 3.352 3.368 0.588 1.364 0.533 3.705 0.533 3.705l0.859 0.287c0 0-0.175-2.268 0.071-3.363 0.076-0.343 0.256-0.635 0.465-0.883 0.141-0.1 0.56-0.401 1.063-0.86 0.024-0.025 0.037-0.048 0.059-0.072 2.028-1.891 5.816-6.547 4.517-14.132z"></path>
</symbol>
<symbol id="icon-react" viewBox="0 0 32 32">
<path d="M16 13.148c-1.575 0-2.852 1.277-2.852 2.852s1.277 2.852 2.852 2.852v0c1.575 0 2.852-1.277 2.852-2.852s-1.277-2.852-2.852-2.852v0zM8.011 21.673l-0.629-0.16c-4.691-1.185-7.381-3.197-7.381-5.519s2.691-4.333 7.381-5.519l0.629-0.159 0.177 0.624c0.545 1.86 1.163 3.443 1.899 4.957l-0.082-0.186 0.135 0.284-0.135 0.284c-0.656 1.329-1.275 2.912-1.761 4.551l-0.056 0.22zM7.089 11.933c-3.565 1.001-5.753 2.533-5.753 4.061 0 1.527 2.188 3.059 5.753 4.061 0.512-1.62 1.046-2.965 1.662-4.263l-0.086 0.202c-0.531-1.098-1.066-2.443-1.511-3.828l-0.065-0.234zM23.989 21.673l-0.177-0.625c-0.544-1.859-1.162-3.441-1.9-4.954l0.081 0.184-0.135-0.284 0.135-0.284c0.656-1.329 1.275-2.911 1.762-4.55l0.056-0.221 0.177-0.624 0.631 0.159c4.689 1.185 7.38 3.197 7.38 5.52s-2.691 4.333-7.38 5.519zM23.335 15.995c0.64 1.385 1.169 2.747 1.576 4.061 3.567-1.003 5.753-2.535 5.753-4.061 0-1.528-2.188-3.059-5.753-4.061-0.511 1.619-1.045 2.963-1.662 4.262l0.086-0.2zM7.080 11.927l-0.177-0.623c-1.319-4.648-0.919-7.979 1.097-9.141 1.977-1.141 5.152 0.207 8.479 3.621l0.453 0.465-0.453 0.465c-1.146 1.19-2.207 2.482-3.162 3.853l-0.068 0.103-0.18 0.257-0.313 0.027c-1.875 0.151-3.596 0.439-5.264 0.86l0.218-0.047zM9.608 3.087c-0.357 0-0.673 0.077-0.94 0.231-1.325 0.764-1.56 3.42-0.647 7.004 1.21-0.285 2.681-0.521 4.18-0.658l0.131-0.010c0.894-1.264 1.792-2.37 2.756-3.414l-0.020 0.022c-2.080-2.025-4.049-3.175-5.46-3.175zM22.393 30.236c-0.001 0-0.001 0 0 0-1.9 0-4.34-1.431-6.872-4.031l-0.453-0.465 0.453-0.465c1.146-1.19 2.206-2.482 3.16-3.854l0.068-0.103 0.18-0.257 0.312-0.027c1.875-0.15 3.597-0.438 5.267-0.858l-0.218 0.046 0.629-0.159 0.179 0.624c1.316 4.645 0.917 7.977-1.099 9.139-0.449 0.259-0.988 0.411-1.562 0.411-0.016 0-0.031-0-0.047-0l0.002 0zM16.932 25.728c2.080 2.025 4.049 3.175 5.46 3.175h0.001c0.356 0 0.673-0.077 0.939-0.231 1.325-0.764 1.561-3.421 0.647-7.005-1.212 0.286-2.682 0.522-4.182 0.658l-0.13 0.010c-0.893 1.265-1.791 2.371-2.755 3.416l0.020-0.022zM24.92 11.927l-0.629-0.159c-1.453-0.376-3.175-0.664-4.939-0.806l-0.111-0.007-0.312-0.027-0.18-0.257c-1.021-1.474-2.082-2.766-3.237-3.966l0.009 0.010-0.453-0.465 0.453-0.465c3.325-3.413 6.499-4.761 8.479-3.621 2.016 1.163 2.416 4.493 1.099 9.14zM19.667 9.653c1.523 0.139 2.969 0.364 4.312 0.668 0.915-3.584 0.679-6.24-0.647-7.004-1.317-0.761-3.793 0.405-6.4 2.944 0.943 1.022 1.841 2.128 2.666 3.289l0.069 0.103zM9.608 30.236c-0.014 0-0.030 0-0.046 0-0.574 0-1.113-0.152-1.577-0.419l0.015 0.008c-2.016-1.161-2.416-4.492-1.097-9.139l0.176-0.624 0.629 0.159c1.54 0.388 3.239 0.661 5.047 0.812l0.313 0.027 0.179 0.257c1.022 1.475 2.083 2.767 3.239 3.967l-0.010-0.010 0.453 0.465-0.453 0.465c-2.531 2.6-4.971 4.031-6.868 4.031zM8.021 21.667c-0.915 3.584-0.679 6.241 0.647 7.005 1.316 0.751 3.791-0.407 6.4-2.944-0.943-1.022-1.841-2.129-2.667-3.29l-0.069-0.103c-1.629-0.146-3.099-0.382-4.534-0.711l0.224 0.043zM16 22.504c-1.097 0-2.225-0.048-3.355-0.141l-0.313-0.027-0.18-0.257c-0.544-0.768-1.139-1.691-1.697-2.639l-0.103-0.19c-0.452-0.758-0.971-1.732-1.45-2.728l-0.105-0.243-0.133-0.284 0.133-0.284c0.584-1.239 1.102-2.212 1.658-3.161l-0.103 0.191c0.552-0.955 1.159-1.907 1.8-2.829l0.18-0.257 0.313-0.027c1.005-0.090 2.174-0.142 3.355-0.142s2.35 0.052 3.505 0.153l-0.15-0.011 0.312 0.027 0.179 0.257c1.177 1.666 2.294 3.567 3.252 5.56l0.104 0.24 0.135 0.284-0.135 0.284c-1.058 2.232-2.176 4.133-3.439 5.925l0.083-0.125-0.179 0.257-0.312 0.027c-1.129 0.093-2.259 0.141-3.356 0.141zM13.071 21.059c1.973 0.148 3.885 0.148 5.86 0 1.004-1.445 1.978-3.104 2.827-4.836l0.101-0.228c-0.947-1.958-1.922-3.617-3.012-5.19l0.083 0.126c-0.877-0.071-1.898-0.111-2.929-0.111s-2.052 0.040-3.063 0.119l0.134-0.008c-1.008 1.447-1.983 3.106-2.83 4.84l-0.099 0.224c0.951 1.96 1.926 3.619 3.014 5.193l-0.085-0.13z"></path>
</symbol>
<symbol id="icon-node-dot-js" viewBox="0 0 32 32">
<path d="M15.997 32c-0.428 0-0.855-0.112-1.229-0.329l-3.915-2.316c-0.584-0.327-0.299-0.443-0.107-0.511 0.78-0.271 0.937-0.333 1.771-0.805 0.087-0.049 0.201-0.031 0.291 0.023l3.008 1.785c0.109 0.060 0.263 0.060 0.363 0l11.727-6.768c0.109-0.063 0.179-0.188 0.179-0.317v-13.533c0-0.132-0.071-0.256-0.183-0.323l-11.721-6.763c-0.108-0.063-0.252-0.063-0.361 0l-11.719 6.764c-0.113 0.065-0.185 0.193-0.185 0.321v13.533c0 0.129 0.072 0.252 0.185 0.313l3.212 1.856c1.743 0.872 2.811-0.155 2.811-1.187v-13.361c0-0.189 0.152-0.337 0.341-0.337h1.487c0.185 0 0.34 0.149 0.34 0.337v13.361c0 2.327-1.267 3.66-3.472 3.66-0.677 0-1.212 0-2.701-0.735l-3.077-1.769c-0.76-0.439-1.229-1.26-1.229-2.139v-13.533c0-0.879 0.471-1.7 1.229-2.137l11.727-6.776c0.743-0.42 1.728-0.42 2.464 0l11.725 6.776c0.76 0.439 1.232 1.259 1.232 2.137v13.533c0 0.879-0.472 1.697-1.232 2.139l-11.725 6.771c-0.373 0.217-0.799 0.329-1.233 0.329zM25.465 18.657c0-2.533-1.712-3.208-5.316-3.684-3.641-0.481-4.012-0.731-4.012-1.583 0-0.704 0.313-1.644 3.011-1.644 2.409 0 3.297 0.519 3.663 2.143 0.032 0.153 0.172 0.265 0.329 0.265h1.521c0.095 0 0.184-0.041 0.248-0.108 0.064-0.072 0.099-0.164 0.089-0.261-0.236-2.797-2.095-4.101-5.851-4.101-3.344 0-5.339 1.411-5.339 3.777 0 2.567 1.984 3.276 5.193 3.593 3.84 0.376 4.137 0.937 4.137 1.692 0 1.311-1.052 1.869-3.523 1.869-3.103 0-3.785-0.779-4.015-2.323-0.027-0.165-0.168-0.287-0.337-0.287h-1.516c-0.188 0-0.339 0.149-0.339 0.337 0 1.976 1.075 4.331 6.207 4.331 3.717 0.001 5.848-1.461 5.848-4.017z"></path>
</symbol>
<symbol id="icon-codewars" viewBox="0 0 32 32">
<path d="M1.013 16.267l-0.107-0.053c-0.24-0.133-0.427-0.333-0.56-0.587-0.187-0.347-0.267-0.667-0.267-1l0.027-0.173c0-0.267 0.067-0.507 0.187-0.733l0.107-0.2c0.053-0.107 0.133-0.2 0.2-0.293 0.080-0.093 0.093-0.213 0.067-0.32l-0.067-0.213c-0.080-0.267-0.133-0.533-0.133-0.8l-0.040-0.16c0-0.293 0.080-0.587 0.267-0.8l0.133-0.173c0.093-0.133 0.24-0.213 0.4-0.267 0.133-0.040 0.227-0.173 0.24-0.333l0.027-0.453c0-0.36 0.173-0.693 0.44-0.933l0.32-0.24c0.067-0.067 0.133-0.133 0.187-0.24 0.067-0.080 0.080-0.187 0.067-0.267-0.027-0.133 0-0.173 0.067-0.187 0.213 0.080 0.347 0.053 0.44-0.053l0.173-0.227 0.48-0.533c0.133-0.133 0.187-0.373 0.107-0.56l-0.16-0.347c-0.027-0.080 0-0.173 0.067-0.2 0.173 0 0.293 0.067 0.347 0.173l0.053 0.093c0.080 0.16 0.267 0.24 0.4 0.173 0.293-0.107 0.533-0.133 0.76-0.133h0.427c0.293 0 0.533-0.2 0.587-0.507 0.053-0.373 0.187-0.667 0.373-0.867 0.2-0.227 0.427-0.4 0.693-0.533 0.347-0.187 0.56-0.453 0.627-0.8 0.093-0.427 0.32-0.733 0.627-0.933l1.013-0.573 0.293-0.173c0.173-0.107 0.333-0.24 0.467-0.4l0.267-0.32c0.133-0.133 0.267-0.227 0.427-0.267 0.133-0.040 0.32-0.067 0.48-0.053l0.533 0.040c0.267 0 0.48 0.067 0.693 0.16l0.133 0.067c0.133 0.053 0.267 0.027 0.333-0.067l0.12-0.067 0.573-0.6c0.133-0.133 0.293-0.187 0.467-0.16s0.347 0.093 0.507 0.173c0.24 0.133 0.44 0.187 0.667 0.187h0.133c0.293 0 0.587 0.040 0.88 0.107l0.2 0.053c0.2 0.053 0.4-0.027 0.533-0.187 0.040-0.067 0.133-0.080 0.187-0.027 0.040 0.027 0.053 0.053 0.067 0.093 0.027 0.267 0.187 0.467 0.4 0.533l0.213 0.067c0.227 0.067 0.427 0.213 0.56 0.4 0.133 0.2 0.293 0.4 0.48 0.533l0.133 0.133c0.133 0.133 0.32 0.187 0.507 0.173h0.787c0.32 0 0.627 0.053 0.933 0.187 0.293 0.133 0.6 0.16 0.88 0.053 0.293-0.093 0.6-0.133 0.907-0.093l0.573 0.093c0.267 0.027 0.533 0.16 0.693 0.36l0.067 0.067c0.133 0.133 0.267 0.307 0.4 0.493 0.080 0.173 0.267 0.267 0.453 0.267h0.827c0.2 0 0.4 0.040 0.56 0.133 0.173 0.133 0.32 0.267 0.453 0.4l0.133 0.173c0.16 0.187 0.24 0.44 0.227 0.707 0 0.213 0.16 0.4 0.373 0.4l0.267 0.027c0.187 0 0.347 0.133 0.44 0.307l0.133 0.267 0.347 0.773c0.053 0.133 0.067 0.267 0.053 0.373 0 0.133 0.040 0.24 0.133 0.293l0.133 0.093c0.173 0.133 0.267 0.333 0.24 0.56l-0.093 0.627-0.027 0.267c-0.027 0.133 0.040 0.307 0.16 0.4 0.2 0.133 0.293 0.307 0.307 0.507v0.267c0 0.133-0.027 0.293-0.133 0.4-0.080 0.107-0.133 0.24-0.133 0.4l0.040 0.307c0 0.213 0.133 0.4 0.267 0.533 0.187 0.133 0.293 0.347 0.32 0.56 0.053 0.333 0.067 0.6 0.067 0.867v0.307c0 0.107 0 0.213 0.040 0.32 0.027 0.093 0.093 0.187 0.173 0.24l0.267 0.2c0.267 0.173 0.453 0.4 0.56 0.707 0.133 0.293 0.173 0.6 0.173 0.907v0.107c0 0.24-0.027 0.493-0.107 0.72-0.067 0.24-0.053 0.467 0.040 0.667 0.107 0.187 0.173 0.4 0.2 0.627 0.053 0.267 0.027 0.533-0.067 0.747l-0.027 0.093c-0.067 0.16-0.173 0.307-0.307 0.427-0.133 0.133-0.267 0.213-0.347 0.307-0.080 0.080-0.133 0.213-0.093 0.333l0.040 0.187c0.067 0.267 0.067 0.533 0 0.773v0.107c-0.053 0.2-0.133 0.373-0.213 0.533-0.093 0.173-0.227 0.307-0.4 0.4l-0.2 0.133c-0.093 0.053-0.16 0.173-0.16 0.293 0 0.133-0.053 0.267-0.133 0.347l-0.2 0.267c-0.133 0.173-0.307 0.32-0.493 0.4-0.187 0.133-0.347 0.267-0.467 0.4-0.133 0.16-0.24 0.347-0.293 0.533-0.053 0.24-0.24 0.373-0.44 0.373h-0.72c-0.187 0-0.36 0.133-0.44 0.293-0.093 0.213-0.187 0.36-0.307 0.493-0.133 0.133-0.213 0.293-0.267 0.48-0.027 0.16-0.16 0.267-0.293 0.213-0.173-0.080-0.347 0-0.427 0.133-0.16 0.267-0.32 0.467-0.493 0.64l-0.093 0.080c-0.173 0.133-0.4 0.24-0.6 0.24-0.24 0-0.36 0.107-0.4 0.267-0.040 0.133-0.067 0.307-0.080 0.453-0.027 0.16-0.080 0.307-0.133 0.44l-0.067 0.080c-0.133 0.2-0.24 0.4-0.373 0.573l-0.053 0.080c-0.173 0.227-0.4 0.4-0.667 0.467-0.32 0.107-0.6 0.133-0.88 0.133h-0.187c-0.133 0-0.267 0.080-0.36 0.213l-0.080 0.133-0.080 0.16-0.173 0.293c-0.133 0.24-0.333 0.4-0.6 0.48-0.267 0.067-0.573 0.093-0.853 0.080l-0.213-0.027c-0.187 0-0.36-0.053-0.533-0.133-0.133-0.053-0.32 0-0.4 0.133-0.133 0.187-0.293 0.293-0.467 0.347l-0.4 0.133c-0.267 0.067-0.56 0.067-0.84 0l-0.213-0.067c-0.133 0-0.267-0.067-0.373-0.133-0.133-0.067-0.267-0.093-0.4-0.080l-0.173 0.027c-0.267 0.027-0.507 0-0.747-0.067l-0.36-0.080c-0.16-0.053-0.307-0.16-0.4-0.307-0.067-0.133-0.213-0.24-0.4-0.267h-0.427c-0.267-0.040-0.507-0.133-0.667-0.333l-0.533-0.507-0.187-0.16-0.293-0.213-0.173-0.133c-0.2-0.133-0.44-0.24-0.693-0.267l-0.8-0.133c-0.080 0-0.133-0.027-0.213-0.040l-0.307-0.067c-0.133-0.027-0.267-0.133-0.36-0.267-0.080-0.133-0.227-0.187-0.36-0.133-0.267 0.107-0.48 0.133-0.693 0.173h-0.187c-0.347 0.027-0.667-0.027-0.987-0.173-0.32-0.133-0.533-0.333-0.733-0.587-0.16-0.227-0.4-0.4-0.693-0.453l-0.373-0.080c-0.267-0.053-0.533-0.16-0.773-0.32-0.267-0.187-0.4-0.36-0.507-0.573-0.107-0.2-0.173-0.427-0.187-0.667v-0.107c-0.027-0.267-0.213-0.507-0.467-0.573-0.307-0.093-0.533-0.227-0.733-0.4-0.187-0.173-0.293-0.427-0.293-0.693l0.027-0.587c0-0.227-0.067-0.427-0.227-0.573-0.16-0.16-0.267-0.36-0.267-0.573l-0.040-0.48c-0.027-0.347-0.093-0.693-0.173-1.040-0.080-0.307 0.040-0.613 0.293-0.76l0.093-0.067c0.133-0.093 0.187-0.267 0.107-0.427l-0.107-0.133c-0.133-0.133-0.267-0.227-0.4-0.267-0.107-0.027-0.133-0.133-0.133-0.2l0.133-0.16c0.080-0.093 0.067-0.24 0-0.32-0.107-0.107-0.16-0.24-0.173-0.373l-0.027-0.933c0-0.187 0.027-0.373 0.080-0.56 0.053-0.16 0-0.347-0.16-0.413zM14.213 14.507c0.093-0.093 0.080-0.267 0-0.333-0.133-0.107-0.227-0.227-0.307-0.36l-0.133-0.213c-0.093-0.173-0.213-0.32-0.347-0.453l-0.027-0.027c-0.133-0.107-0.227-0.24-0.307-0.4-0.067-0.133-0.067-0.267 0-0.4l0.080-0.133c0.080-0.133 0.133-0.32 0.133-0.48v-0.053c0-0.133-0.053-0.267-0.133-0.4-0.053-0.107-0.107-0.24-0.133-0.373v-0.080c-0.040-0.16 0-0.333 0.107-0.467 0.107-0.173 0.187-0.333 0.227-0.533v-0.027c0.053-0.133 0.027-0.307-0.053-0.44s-0.107-0.267-0.053-0.427l0.093-0.267c0.080-0.24 0.2-0.453 0.36-0.64l0.187-0.2 0.133-0.16 0.080-0.080c0.080-0.080 0.093-0.213 0.027-0.32-0.067-0.133-0.107-0.267-0.080-0.4l0.027-0.187c0.040-0.267 0.133-0.533 0.307-0.747l0.053-0.053c0.2-0.267 0.453-0.44 0.747-0.533l0.36-0.133c0.16-0.053 0.267-0.227 0.267-0.4 0-0.213 0.067-0.4 0.187-0.573l0.067-0.067c0.133-0.227 0.293-0.453 0.4-0.693l0.093-0.173c0.027-0.040 0.040-0.093 0.040-0.133 0-0.227-0.133-0.427-0.347-0.44l-0.587-0.040c-0.333-0.027-0.667 0-0.987 0l-1.133 0.133c-0.173 0-0.307 0.133-0.32 0.32 0 0.187-0.133 0.347-0.293 0.4l-0.48 0.133-0.133 0.040-0.4 0.133c-0.293 0.093-0.533 0.307-0.667 0.6l-0.107 0.173c-0.133 0.293-0.36 0.533-0.64 0.707-0.267 0.173-0.4 0.453-0.427 0.773v0.133c-0.027 0.267-0.107 0.533-0.267 0.72l-0.067 0.107c-0.107 0.133-0.133 0.307-0.067 0.453 0.067 0.16 0.107 0.333 0.093 0.507v0.707c0 0.187-0.133 0.347-0.267 0.4-0.187 0.067-0.307 0.213-0.36 0.4l-0.067 0.267c-0.053 0.267 0.040 0.533 0.267 0.693 0.213 0.16 0.347 0.4 0.4 0.693v0.24c0.040 0.267 0.187 0.533 0.427 0.667 0.24 0.16 0.427 0.4 0.533 0.667l0.067 0.213c0.107 0.293 0.347 0.467 0.613 0.493h0.080c0.24 0 0.453 0.133 0.587 0.347s0.347 0.36 0.587 0.4l0.373 0.107c0.227 0.067 0.44 0.187 0.613 0.36l0.027 0.027c0.133 0.107 0.347 0.093 0.467-0.053zM15.733 13.28c0.133 0.080 0.267 0.040 0.32-0.080l0.040-0.067c0.093-0.187 0.213-0.373 0.347-0.533l0.267-0.4c0.040 0 0.053-0.027 0.067-0.053l0.32-0.427c0.133-0.133 0.293-0.227 0.48-0.227 0.173 0 0.32-0.093 0.4-0.267 0.053-0.187 0.133-0.36 0.293-0.507l0.067-0.080c0.133-0.133 0.267-0.2 0.4-0.267 0.173-0.027 0.333-0.053 0.493-0.053h0.4c0.16 0 0.293-0.067 0.373-0.2s0.2-0.227 0.333-0.293l0.133-0.053c0.213-0.093 0.453-0.16 0.693-0.187l0.267-0.027c0.16 0 0.333 0 0.493 0.093 0.133 0.093 0.307 0.080 0.44-0.027l0.093-0.053c0.2-0.133 0.427-0.24 0.667-0.267h0.027c0.267-0.053 0.507-0.053 0.773-0.040h0.133c0.267 0.040 0.493 0.133 0.667 0.333l0.040 0.053c0.133 0.133 0.347 0.24 0.533 0.24h0.227c0.067 0 0.133-0.027 0.173-0.093 0.040-0.040 0.107-0.080 0.173-0.080h0.133c0.187 0 0.36 0.053 0.533 0.107l0.227 0.093c0.213 0.067 0.44 0.133 0.667 0.16h0.16c0.107 0 0.173-0.067 0.173-0.16 0-0.133-0.027-0.267-0.093-0.373l-0.093-0.213c-0.107-0.173-0.187-0.36-0.267-0.533l-0.027-0.067c-0.067-0.133-0.067-0.267 0-0.4v-0.067c0.027-0.107-0.027-0.227-0.133-0.267h-0.107c-0.213-0.067-0.4-0.187-0.533-0.36l-0.133-0.133c-0.133-0.133-0.213-0.333-0.267-0.533-0.067-0.173-0.213-0.307-0.4-0.307h-0.56c-0.2-0.027-0.373-0.133-0.493-0.293l-0.053-0.067c-0.093-0.133-0.173-0.293-0.227-0.453-0.067-0.133-0.213-0.213-0.347-0.173l-0.16 0.053c-0.267 0.093-0.533 0.133-0.8 0.107l-0.213-0.027c-0.227 0-0.44-0.093-0.613-0.227l-0.133-0.093c-0.107-0.080-0.213-0.133-0.333-0.187-0.133-0.053-0.24-0.027-0.32 0.067l-0.067 0.080c-0.133 0.133-0.32 0.24-0.507 0.267l-0.72 0.040c-0.133 0-0.267 0.067-0.36 0.16-0.107 0.093-0.227 0.16-0.36 0.187h-0.027c-0.133 0-0.267 0.093-0.4 0.187v0.027c-0.133 0.133-0.307 0.2-0.48 0.2l-0.053 0.027c-0.16 0-0.32 0-0.48 0.040h-0.16c-0.227 0.040-0.4 0.227-0.453 0.467l-0.053 0.307c-0.040 0.213-0.133 0.4-0.267 0.573-0.133 0.16-0.293 0.267-0.493 0.267h-0.227c-0.133 0.027-0.267 0.173-0.24 0.333 0.027 0.227 0 0.427-0.040 0.627l-0.053 0.227c-0.053 0.2-0.187 0.36-0.36 0.427l-0.080 0.040h-0.027c-0.080 0.053-0.133 0.173-0.067 0.267 0.080 0.133 0.107 0.267 0.093 0.4l-0.040 0.427c0 0.16-0.067 0.307-0.133 0.44-0.080 0.133-0.080 0.267-0.027 0.4l0.133 0.293c0.067 0.133 0.080 0.267 0.040 0.427-0.040 0.133-0.067 0.267-0.053 0.4 0 0.133 0.080 0.267 0.187 0.32l0.027 0.027zM26.267 22.92c0.133 0.133 0.333 0.187 0.493 0.080l0.267-0.173c0.133-0.093 0.24-0.227 0.293-0.4v-0.027l0.133-0.4 0.080-0.133 0.053-0.133 0.053-0.093c0.053-0.107 0.133-0.187 0.267-0.227l0.053-0.027c0.107-0.027 0.173-0.133 0.173-0.24 0-0.133 0.067-0.24 0.133-0.333l0.107-0.093 0.267-0.347v-0.027c0.080-0.107 0.133-0.227 0.16-0.36s0-0.267-0.053-0.4l-0.027-0.053c-0.053-0.133-0.080-0.227-0.093-0.347l-0.040-0.373-0.040-0.4c0-0.133 0.053-0.267 0.133-0.4 0.093-0.107 0.16-0.24 0.213-0.373v-0.053l0.027-0.027c0.027-0.133-0.040-0.267-0.16-0.267-0.133-0.067-0.267-0.173-0.307-0.333l-0.040-0.080c-0.067-0.24-0.107-0.48-0.107-0.72l0.027-0.667v-0.040c0-0.227-0.187-0.4-0.4-0.4h-0.027c-0.267 0-0.48-0.080-0.667-0.267l-0.107-0.133-0.267-0.307-0.347-0.4c-0.133-0.187-0.267-0.347-0.44-0.507-0.133-0.133-0.333-0.267-0.533-0.293l-0.267-0.040c-0.133-0.027-0.307-0.093-0.453-0.187-0.107-0.080-0.267-0.053-0.373 0.053l-0.173 0.187-0.080 0.053c-0.093 0.027-0.187-0.027-0.227-0.133-0.053-0.16-0.053-0.347 0.027-0.507v-0.080c0-0.093-0.080-0.16-0.16-0.133h-0.213c-0.24 0-0.48-0.027-0.707-0.133l-0.133-0.053c-0.133-0.067-0.293-0.107-0.44-0.107-0.133 0-0.267 0.027-0.4 0.107l-0.053 0.040c-0.16 0.107-0.347 0.16-0.533 0.173h-0.44c-0.2 0-0.4 0.067-0.533 0.173-0.173 0.107-0.36 0.173-0.56 0.213l-0.36 0.053c-0.16 0.040-0.333 0.107-0.48 0.227-0.133 0.133-0.32 0.213-0.493 0.267l-0.067 0.027c-0.213 0.067-0.4 0.2-0.533 0.4l-0.16 0.16c-0.093 0.133-0.093 0.293 0 0.427 0.080 0.133 0.24 0.173 0.4 0.133l0.2-0.080c0.107-0.040 0.227 0 0.32 0.053 0.080 0.067 0.2 0.107 0.32 0.093l0.333-0.040c0.187 0 0.373 0 0.56 0.053 0.2 0.067 0.373 0.133 0.533 0.267s0.333 0.187 0.533 0.213 0.4 0.067 0.587 0.133l0.133 0.027c0.133 0.040 0.24 0.133 0.32 0.267 0.067 0.107 0.133 0.267 0.133 0.4v0.040c0 0.16 0.133 0.267 0.267 0.267h0.080c0.213 0 0.44 0.027 0.667 0.093l0.093 0.040c0.133 0.053 0.267 0.133 0.36 0.267 0.107 0.133 0.173 0.267 0.213 0.4l0.040 0.187c0.040 0.2 0.053 0.4 0.053 0.613v0.067c0 0.133 0.093 0.267 0.24 0.32 0.133 0.027 0.293 0.080 0.44 0.16l0.067 0.027c0.173 0.107 0.347 0.24 0.48 0.4l0.067 0.093c0.173 0.2 0.267 0.453 0.267 0.707v0.093c0 0.2-0.040 0.4-0.107 0.587-0.053 0.16 0 0.347 0.173 0.4l0.093 0.067c0.2 0.080 0.373 0.227 0.507 0.4 0.133 0.2 0.187 0.427 0.187 0.667v0.4c-0.027 0.133-0.067 0.24-0.133 0.333s-0.067 0.227 0 0.32zM17.733 16.093h-0.027c-0.053 0-0.080 0.067-0.067 0.133l0.053 0.267c0.053 0.213 0.080 0.427 0.107 0.64s0.133 0.4 0.293 0.533h0.053c0.2 0.16 0.32 0.4 0.333 0.64v0.667c-0.027 0.133 0 0.267 0.080 0.373l0.067 0.067c0.133 0.16 0.187 0.347 0.2 0.533l0.040 0.733c0 0.173-0.107 0.32-0.267 0.347l-0.133 0.027c-0.093 0-0.133 0.107-0.133 0.2 0 0.107 0.040 0.227 0.080 0.333v0.027c0.040 0.133 0.053 0.267 0.040 0.4l-0.053 0.36c-0.053 0.267-0.133 0.507-0.267 0.747l-0.093 0.16c-0.067 0.133-0.16 0.213-0.267 0.267-0.133 0.053-0.227 0.16-0.267 0.293l-0.107 0.48c-0.067 0.267-0.187 0.533-0.347 0.8h-0.027c-0.16 0.213-0.36 0.4-0.6 0.533l-0.16 0.107-0.4 0.2c-0.133 0.053-0.213 0.173-0.24 0.32l-0.067 0.44c-0.040 0.267-0.133 0.493-0.32 0.667l-0.173 0.2-0.2 0.2-0.2 0.213c-0.16 0.187-0.4 0.267-0.667 0.227l-0.48-0.093-0.44-0.053h-0.12c-0.053 0.053-0.067 0.133-0.027 0.213 0.093 0.16 0.24 0.267 0.4 0.267l0.293 0.053c0.133 0 0.293 0.067 0.427 0.133 0.133 0.093 0.267 0.16 0.427 0.2h0.027c0.173 0.067 0.36 0.080 0.533 0.067l0.2-0.027c0.227-0.027 0.44 0 0.627 0.080l0.16 0.053c0.067 0.027 0.173 0 0.24-0.067 0.080-0.080 0.16-0.133 0.267-0.173l0.107-0.027c0.173-0.053 0.347-0.080 0.533-0.080h0.107c0.16 0 0.307 0.027 0.44 0.107l0.053 0.027c0.093 0.040 0.2 0 0.267-0.080 0.040-0.093 0.133-0.187 0.227-0.267l0.333-0.227 0.32-0.2c0.133-0.093 0.32-0.133 0.48-0.133l0.48-0.040c0.187-0.027 0.347-0.16 0.4-0.347 0.053-0.2 0.133-0.4 0.267-0.573s0.267-0.32 0.4-0.453c0.173-0.133 0.347-0.2 0.533-0.213h0.107c0.213-0.040 0.373-0.24 0.36-0.453v-0.893c0.027-0.133 0.080-0.307 0.16-0.44l0.267-0.4 0.107-0.133c0.080-0.067 0.133-0.16 0.227-0.267l0.133-0.173c0.080-0.133 0.080-0.307-0.027-0.427-0.133-0.133-0.2-0.32-0.227-0.507v-0.053c-0.027-0.213-0.027-0.44 0.040-0.667v-0.067c0.067-0.173 0.16-0.347 0.267-0.507 0.107-0.133 0.093-0.32-0.040-0.427l-0.227-0.2c-0.187-0.16-0.293-0.4-0.32-0.64l-0.027-0.267c0-0.080 0-0.173-0.027-0.267l-0.027-0.2c-0.027-0.227-0.16-0.4-0.347-0.533l-0.093-0.027c-0.133-0.080-0.267-0.2-0.373-0.36-0.107-0.133-0.16-0.32-0.2-0.507l-0.040-0.227c0-0.080-0.053-0.133-0.133-0.173l-0.64-0.2c-0.133-0.027-0.267-0.133-0.36-0.227h-0.027c-0.080-0.107-0.213-0.107-0.293-0.027l-0.133 0.133c-0.027 0.040-0.053 0.053-0.093 0.040-0.080 0-0.133-0.067-0.107-0.133 0.027-0.213-0.053-0.427-0.227-0.56l-0.173-0.133-0.4-0.267c-0.107-0.040-0.267 0-0.32 0.133l-0.053 0.080c0 0.027-0.040 0.040-0.053 0.053-0.053 0-0.133 0-0.133-0.067l-0.040-0.067c-0.040-0.080-0.133-0.133-0.213-0.16zM16.133 17.427l-0.067-0.067c-0.067-0.053-0.133-0.040-0.2 0.027-0.093 0.16-0.173 0.333-0.213 0.507v0.027c-0.040 0.173-0.2 0.293-0.36 0.267h-0.16c-0.187 0-0.333 0.16-0.333 0.347 0 0.24-0.080 0.48-0.227 0.667l-0.080 0.080c-0.133 0.173-0.333 0.293-0.533 0.36l-0.107 0.027c-0.133 0.040-0.24 0.133-0.267 0.293 0 0.133-0.080 0.267-0.187 0.373l-0.133 0.107c-0.16 0.173-0.4 0.267-0.64 0.293l-0.667 0.067c-0.213 0-0.4 0.133-0.533 0.333s-0.333 0.333-0.533 0.36l-0.293 0.027c-0.213 0.027-0.44 0.027-0.667-0.027l-0.133-0.027-0.36-0.093c-0.133-0.040-0.24 0-0.32 0.093l-0.133 0.173c-0.173 0.2-0.427 0.293-0.667 0.267l-0.867-0.107c-0.133 0-0.24-0.067-0.36-0.133-0.133-0.080-0.227-0.173-0.32-0.267l-0.333-0.4c-0.040-0.027-0.107-0.040-0.173-0.027l-0.187 0.080-0.747 0.187c-0.133 0.040-0.307 0-0.44-0.080-0.133-0.107-0.293-0.133-0.453-0.133h-0.173c-0.16 0.040-0.267 0.213-0.213 0.373l0.053 0.267c0.040 0.133 0.027 0.293-0.040 0.427s-0.053 0.267 0.040 0.4l0.080 0.107c0.107 0.16 0.267 0.293 0.4 0.427s0.267 0.267 0.373 0.44l0.2 0.36c0.107 0.187 0.267 0.293 0.48 0.293 0.2 0 0.4 0.067 0.56 0.2l0.4 0.373c0.107 0.093 0.267 0.107 0.373 0.027l0.067-0.027c0.080 0 0.133 0.053 0.133 0.133v0.067c0 0.173 0.133 0.333 0.307 0.4l0.6 0.133c0.213 0.067 0.427 0.133 0.627 0.267h0.107c0.107 0 0.2-0.093 0.187-0.213v-0.467c0-0.133 0.053-0.267 0.16-0.32l0.067-0.027c0.067 0.027 0.133 0.080 0.107 0.133v0.227c0 0.173 0.053 0.333 0.173 0.453 0.133 0.133 0.307 0.16 0.453 0.107 0.16-0.067 0.32-0.080 0.493-0.067l0.493 0.027c0.24 0.027 0.467 0 0.667-0.093 0.24-0.080 0.44-0.187 0.627-0.333l0.080-0.053 0.4-0.36c0.133-0.133 0.307-0.2 0.467-0.2h0.533c0.267-0.027 0.507-0.267 0.533-0.533l0.053-0.267c0-0.173 0.080-0.333 0.2-0.467 0.133-0.133 0.267-0.213 0.4-0.267l0.16-0.067c0.227-0.093 0.4-0.293 0.48-0.533l0.080-0.32c0.067-0.267 0.2-0.533 0.4-0.707l0.027-0.027c0.16-0.133 0.187-0.4 0.080-0.587l-0.040-0.093c-0.093-0.133-0.107-0.333-0.040-0.507 0.067-0.187 0.133-0.347 0.24-0.507l0.133-0.187c0.053-0.107 0.053-0.267-0.027-0.36-0.080-0.107-0.133-0.24-0.133-0.373l-0.027-0.187v-0.453c0.027-0.133 0-0.307-0.040-0.44l-0.053-0.16zM14.227 16.413v-0.040c0-0.133-0.080-0.213-0.187-0.213h-0.347c-0.133 0.027-0.267 0.027-0.373 0h-0.6c-0.307 0-0.6-0.053-0.893-0.133l-0.32-0.080-0.267-0.080-0.6-0.2c-0.32-0.093-0.56-0.307-0.707-0.6l-0.067-0.133c-0.093-0.2-0.293-0.307-0.493-0.267-0.227 0-0.453 0-0.667-0.107l-0.16-0.067c-0.307-0.133-0.533-0.4-0.533-0.76l-0.053-0.36c-0.040-0.187-0.16-0.36-0.32-0.427-0.187-0.080-0.36-0.187-0.533-0.307l-0.067-0.040c-0.2-0.16-0.373-0.373-0.467-0.627l-0.027-0.080c-0.067-0.213-0.080-0.44-0.027-0.667l0.027-0.080c0.053-0.173 0.067-0.347 0.067-0.533 0-0.16-0.067-0.32-0.187-0.44l-0.187-0.173c-0.213-0.173-0.347-0.427-0.36-0.707-0.027-0.293-0.027-0.573 0.027-0.853v-0.080c0-0.16-0.133-0.267-0.267-0.267h-0.040c-0.173 0-0.32 0.107-0.4 0.267-0.067 0.187-0.173 0.333-0.293 0.48l-0.053 0.067-0.4 0.4c-0.133 0.133-0.213 0.333-0.24 0.533s-0.080 0.4-0.16 0.587l-0.027 0.067c-0.067 0.16-0.173 0.307-0.307 0.4-0.133 0.107-0.227 0.267-0.227 0.427l-0.027 0.613c0 0.267-0.040 0.533-0.133 0.8l-0.027 0.107c-0.067 0.173 0 0.36 0.16 0.44l0.56 0.24 0.053 0.027c0.040 0 0.053 0.027 0.067 0.067 0.040 0.053 0 0.133-0.040 0.133l-0.133 0.067c-0.080 0.027-0.133 0.107-0.16 0.2l-0.027 0.133v0.027l-0.133 0.747c-0.027 0.107-0.027 0.227-0.027 0.347 0 0.107 0.067 0.2 0.16 0.24l0.293 0.133c0.133 0.080 0.293 0.173 0.4 0.267l0.133 0.107c0.040 0.053 0.107 0.107 0.16 0.133l0.053 0.053c0.093 0.080 0.16 0.187 0.187 0.307l0.133 0.6c0 0.16 0.133 0.293 0.267 0.333l0.213 0.067c0 0 0.040 0 0.067 0.027l0.267 0.080c0.213 0.067 0.4 0.187 0.56 0.347 0.16 0.133 0.32 0.307 0.453 0.493l0.053 0.053c0.107 0.133 0.267 0.2 0.427 0.16s0.333-0.053 0.507-0.053h0.2c0.133 0 0.307 0.040 0.453 0.133 0.133 0.080 0.307 0.133 0.467 0.2h0.040c0.16 0.067 0.333 0.040 0.467-0.053 0.133-0.107 0.307-0.16 0.48-0.16l0.627 0.040c0.133 0 0.267-0.027 0.333-0.133h0.027l0.227-0.213 0.067-0.067c0.107-0.133 0.267-0.187 0.427-0.2h0.6c0.16 0 0.307-0.133 0.373-0.267s0.2-0.24 0.36-0.267l0.267-0.053c0.107 0 0.2-0.093 0.24-0.213 0.040-0.133 0.107-0.24 0.2-0.32l0.213-0.213c0.133-0.133 0.2-0.267 0.2-0.413z"></path>
</symbol>
<symbol id="icon-linkedin" viewBox="0 0 32 32">
<path d="M27.263 27.269h-4.739v-7.425c0-1.771-0.036-4.049-2.469-4.049-2.471 0-2.848 1.927-2.848 3.919v7.556h-4.739v-15.269h4.552v2.081h0.061c0.636-1.2 2.183-2.467 4.493-2.467 4.801 0 5.689 3.16 5.689 7.273zM7.116 9.911c-1.525 0-2.751-1.235-2.751-2.753 0-1.517 1.227-2.751 2.751-2.751 1.52 0 2.752 1.233 2.752 2.751 0 1.519-1.233 2.753-2.752 2.753zM9.492 27.269h-4.752v-15.269h4.752zM29.633 0h-27.272c-1.305 0-2.361 1.032-2.361 2.305v27.389c0 1.275 1.056 2.305 2.361 2.305h27.268c1.304 0 2.371-1.031 2.371-2.305v-27.389c0-1.273-1.067-2.305-2.371-2.305z"></path>
</symbol>
<symbol id="icon-css3" viewBox="0 0 28 28">
<path d="M4.297 2h23.516l-4.156 20.828-12.563 4.172-10.906-4.172 1.109-5.563h4.641l-0.453 2.297 6.594 2.516 7.594-2.516 1.062-5.297h-18.875l0.906-4.641h18.891l0.594-2.984h-18.875z"></path>
</symbol>
<symbol id="icon-html5" viewBox="0 0 22 28">
<path d="M17.656 9.328l0.25-2.734h-13.813l0.734 8.344h9.562l-0.344 3.563-3.078 0.828-3.063-0.828-0.203-2.188h-2.734l0.344 4.344 5.656 1.563h0.063v-0.016l5.609-1.547 0.781-8.5h-10.063l-0.234-2.828h10.531zM0 2h22l-2 22.469-9.031 2.531-8.969-2.531z"></path>
</symbol>
<symbol id="icon-quote-left" viewBox="0 0 26 28">
<path d="M12 15v6c0 1.656-1.344 3-3 3h-6c-1.656 0-3-1.344-3-3v-11c0-4.406 3.594-8 8-8h1c0.547 0 1 0.453 1 1v2c0 0.547-0.453 1-1 1h-1c-2.203 0-4 1.797-4 4v0.5c0 0.828 0.672 1.5 1.5 1.5h3.5c1.656 0 3 1.344 3 3zM26 15v6c0 1.656-1.344 3-3 3h-6c-1.656 0-3-1.344-3-3v-11c0-4.406 3.594-8 8-8h1c0.547 0 1 0.453 1 1v2c0 0.547-0.453 1-1 1h-1c-2.203 0-4 1.797-4 4v0.5c0 0.828 0.672 1.5 1.5 1.5h3.5c1.656 0 3 1.344 3 3z"></path>
</symbol>
<symbol id="icon-mail" viewBox="0 0 32 32">
<path d="M28 5h-24c-2.209 0-4 1.792-4 4v13c0 2.209 1.791 4 4 4h24c2.209 0 4-1.791 4-4v-13c0-2.208-1.791-4-4-4zM2 10.25l6.999 5.25-6.999 5.25v-10.5zM30 22c0 1.104-0.898 2-2 2h-24c-1.103 0-2-0.896-2-2l7.832-5.875 4.368 3.277c0.533 0.398 1.166 0.6 1.8 0.6 0.633 0 1.266-0.201 1.799-0.6l4.369-3.277 7.832 5.875zM30 20.75l-7-5.25 7-5.25v10.5zM17.199 18.602c-0.349 0.262-0.763 0.4-1.199 0.4s-0.851-0.139-1.2-0.4l-12.8-9.602c0-1.103 0.897-2 2-2h24c1.102 0 2 0.897 2 2l-12.801 9.602z"></path>
</symbol>
<symbol id="icon-location" viewBox="0 0 32 32">
<path d="M16.002 17.746c3.309 0 6-2.692 6-6s-2.691-6-6-6c-3.309 0-6 2.691-6 6s2.691 6 6 6zM16.002 6.746c2.758 0 5 2.242 5 5s-2.242 5-5 5c-2.758 0-5-2.242-5-5s2.242-5 5-5zM16 0c-6.618 0-12 5.316-12 12.001 0 7 6.001 14.161 10.376 19.194 0.016 0.020 0.718 0.805 1.586 0.805 0.002 0 0.073 0 0.077 0 0.867 0 1.57-0.785 1.586-0.805 4.377-5.033 10.377-12.193 10.377-19.194 0-6.685-5.383-12.001-12.002-12.001zM16.117 29.883c-0.021 0.020-0.082 0.064-0.135 0.098-0.010-0.027-0.084-0.086-0.129-0.133-3.665-4.217-9.853-11.334-9.853-17.847 0-5.514 4.487-10.001 10-10.001 5.516 0 10.002 4.487 10.002 10.002 0 6.512-6.188 13.629-9.885 17.881z"></path>
</symbol>
</defs>
</svg>
